# xmcd
#
# Track frame offsets: 
#        150
#        27947
#        44629
#        60328
#        74461
#        92624
#        110152
#        129653
#        148139
#        172691
#        189160
#        207475
#        223220
#        233520
#        248466
#        262593
#        274214
#        290915
#        306131
#
# Disc length: 4340 seconds
#
# Revision: 0
# Processed by: cddbd v1.5.2PL0 Copyright (c) Steve Scherf et al.
# Submitted via: ExactAudioCopy v1.3
#
DISCID=1b10f213
DTITLE=Various Artist - Best of Woodstock der Blasmusik
DYEAR=2019
DGENRE=Blasmusik
TTITLE0=Bullhorns - Brassy Reincarnation of M.J.
TTITLE1=Cubaboarisch 2.0 - Leo Meixner - Da Boarisch Hiasl Cha-Cha-Cha
TTITLE2=Deschowieda - Monaco Franze (Bavarian Everybody)
TTITLE3=Southbrass - Lucky Life
TTITLE4=Da Blechhauf´n - Mariandl´s Homecoming
TTITLE5=Fäaschtbänkler - Wenn es Liebe ist
TTITLE6=Die Brasserie - Rap Medley
TTITLE7=Dreiviertelbluat - Odlgruamschwimmer
TTITLE8=Marshall Cooper - Bitter Sweet Bone
TTITLE9=Django 3000 - Menschen von Morgen
TTITLE10=Kreuzwort - Kopf ist wach
TTITLE11=Poxrucker Sisters - D´Sun geht auf 
TTITLE12=Andy Lee Lang - Chattanooga Shoe Shine Boy
TTITLE13=Lady Kryner - Bella Ciao
TTITLE14=Gankino Circus - So oder so
TTITLE15=Beda mit Palme feat. Blech Brass Brothers - Schware Göd
TTITLE16=d´Hundskrippln - Lederhosn Amore
TTITLE17=Die Niachtan - Barkeepa
TTITLE18=Heavytones - The Pursuit
EXTD=
EXTT0=
EXTT1=
EXTT2=
EXTT3=
EXTT4=
EXTT5=
EXTT6=
EXTT7=
EXTT8=
EXTT9=
EXTT10=
EXTT11=
EXTT12=
EXTT13=
EXTT14=
EXTT15=
EXTT16=
EXTT17=
EXTT18=
PLAYORDER=
